# File produced by Open Asset Import Library (http://www.assimp.sf.net)
# (assimp v3.1.187496374)

mtllib finger.obj.mtl

# 18 vertex positions
v  0.01036 0.0264034 0.000154629
v  0.0104486 0.0025833 0.000146801
v  -0.0103872 0.00253418 0.000131696
v  -0.0104795 0.0161016 0.0189882
v  -0.0104013 0.0263094 0.00016651
v  -0.0103889 0.0252203 0.0191876
v  -0.0087304 -2.35252e-05 0.0361648
v  0.0104005 0.0252534 0.0190366
v  0.00583983 0.0142743 0.0538035
v  0.00861608 0.0139887 0.0513279
v  0.0104948 0.0151026 0.0184356
v  0.00869277 -0.000132643 0.0501662
v  -0.00862294 -5.68019e-05 0.0509528
v  -0.00548142 -9.11208e-05 0.0537247
v  -0.00527792 0.0142931 0.053849
v  -0.00777838 0.0142182 0.0523659
v  -0.00884117 0.0139176 0.0505894
v  0.00613802 -2.06026e-05 0.0535776

# 0 UV coordinates

# 32 vertex normals
vn 0.000724164 0.000331308 -1
vn -0.99999 -0.000585782 -0.00447174
vn -0.99995 0.00990875 0.00122006
vn 0.00240304 -0.997479 -0.0709137
vn 0.000668274 0.953556 0.301214
vn -0.0005789 0.00146393 -0.999999
vn 0.998344 0.00589157 0.0572229
vn 0.998185 -0.050838 0.0322792
vn 0.998371 0.000729252 0.0570496
vn -0.871287 -0.490747 0.00522707
vn 0.0362712 -0.99794 -0.0529128
vn -0.00372285 -0.999988 -0.00316058
vn 0.999909 0.00984192 -0.00926313
vn 0.999991 0.00372285 -0.00191858
vn -0.0011495 0.99815 0.0607926
vn 0.00284562 0.953846 0.300284
vn -0.218924 0.920873 0.32259
vn -0.661425 -0.0350314 0.749193
vn -0.998169 -0.0513123 0.0320353
vn 0.377717 0.867563 0.323518
vn -0.00448618 0.998355 0.0571685
vn -0.998589 0.0087761 0.0523757
vn -0.665951 0.690851 0.281485
vn 0.0127505 -0.0155288 0.999798
vn 0.00408502 -0.00870048 0.999954
vn 0.006542 -0.999267 0.0377181
vn 0.798906 -0.0450007 0.59977
vn -0.00899609 -0.999957 -0.00218479
vn -0.510144 -0.000216662 0.860089
vn -0.998608 -0.0142745 0.0507836
vn 0.665648 0.00209596 0.746263
vn -0.858159 -4.90786e-05 0.513384

# Mesh '<STL_BINARY>' with 32 faces
g <STL_BINARY>
usemtl DefaultMaterial
f  1//1 2//1 3//1
f  3//2 4//2 5//2
f  5//3 4//3 6//3
f  2//4 7//4 3//4
f  8//5 6//5 9//5
f  3//6 5//6 1//6
f  10//7 11//7 8//7
f  11//8 12//8 2//8
f  10//9 12//9 11//9
f  13//10 3//10 7//10
f  2//11 12//11 7//11
f  12//12 14//12 7//12
f  8//13 11//13 2//13
f  8//14 2//14 1//14
f  8//15 1//15 6//15
f  6//16 15//16 9//16
f  16//17 15//17 6//17
f  13//18 14//18 16//18
f  3//19 13//19 4//19
f  8//20 9//20 10//20
f  1//21 5//21 6//21
f  4//22 17//22 6//22
f  17//23 16//23 6//23
f  9//24 14//24 18//24
f  15//25 14//25 9//25
f  12//26 18//26 14//26
f  18//27 12//27 10//27
f  14//28 13//28 7//28
f  16//29 14//29 15//29
f  13//30 17//30 4//30
f  18//31 10//31 9//31
f  16//32 17//32 13//32

