# File produced by Open Asset Import Library (http://www.assimp.sf.net)
# (assimp v3.1.187496374)

mtllib link4.obj.mtl

# 152 vertex positions
v  0.0225689 -0.0395566 0.093692
v  0.0349857 -0.0291754 0.0937601
v  0.0278036 -0.0243115 0.100943
v  0.0433617 -0.0139189 0.0938607
v  -0.0277001 0.124 0.00612191
v  -0.0723802 0.123999 0.0545288
v  -0.0513802 0.123999 0.0457533
v  0.0452131 0.031664 0.00111872
v  -0.0370906 0.123998 -0.0318319
v  -0.0281717 0.124 -0.0105193
v  -0.0861436 0.123968 -0.0552066
v  -0.0742379 0.123996 -0.0545801
v  0.0218268 0.0299403 0.100929
v  -0.0548461 0.124009 -0.0479598
v  0.0379847 -0.0364881 0.0652637
v  0.0290268 -0.0392658 0.0847768
v  0.0264266 -0.0457158 0.0657169
v  0.0340658 -0.0436073 0.000539473
v  0.0387193 -0.0298809 0.084476
v  -0.109295 0.124003 0.0484872
v  -0.0922486 0.124 0.054293
v  0.0352073 -0.0108453 0.100914
v  0.0165641 -0.00761799 0.108349
v  0.0435987 -0.0202372 0.0870457
v  0.0225794 -0.0504143 0.00055807
v  -0.0765705 0.0398249 -0.045276
v  0.0438956 -0.033551 0.000520998
v  0.00204916 0.037664 0.10079
v  -0.033068 0.123999 0.025663
v  0.0413396 0.0323563 0.066298
v  0.0543498 0.0103732 0.000641957
v  0.0487373 0.0204309 0.0656663
v  0.0528774 0.00183914 0.0649284
v  0.0186238 -0.0443663 0.0869201
v  0.0454452 -0.0267077 0.065418
v  -0.0734579 0.06948 -0.0505589
v  -0.0689704 0.0884986 -0.0517807
v  0.0504052 -0.0228559 0.000627428
v  -0.122193 0.0955317 0.0368938
v  -0.0349356 -0.012055 0.100886
v  -0.0370272 0.00274428 0.100844
v  -0.0151649 0.00910898 0.108663
v  -0.032575 0.0174211 0.100906
v  -0.120391 0.123968 0.0403303
v  -0.12909 0.123972 0.0297955
v  0.0456334 0.00456764 0.0929286
v  0.0367035 0.003599 0.100953
v  0.048049 0.00329215 0.0873991
v  0.0191766 0.00156805 0.108031
v  0.0129463 -0.015115 0.107815
v  0.00379674 -0.00707858 0.110758
v  0.00885151 0.00247627 0.110543
v  0.0134306 -0.034342 0.10098
v  -0.119318 0.0435436 0.0286429
v  -0.0418584 -0.0209428 0.0896924
v  -0.0287434 -0.0230392 0.100935
v  -0.0133221 -0.0098899 0.108975
v  -0.00576515 0.0182159 0.1081
v  -0.137607 0.123998 0.0032398
v  -0.136655 0.104576 0.00798006
v  -0.134661 0.123981 0.0181685
v  -0.063776 0.107927 -0.0515011
v  -0.0724709 0.105766 -0.0538652
v  -0.103567 0.123994 -0.0510597
v  -0.113556 0.123983 -0.0457284
v  0.0540366 -0.0112615 0.000537692
v  0.0551395 -0.00281443 0.000578568
v  0.0502325 0.0231439 0.000568287
v  -0.0871983 0.0796108 -0.0524394
v  -0.0824021 0.0929204 -0.0539049
v  0.00915327 -0.0520799 0.0654662
v  -0.118237 0.0289715 -0.0185448
v  -0.114342 0.028618 -0.0241153
v  -0.0316712 -0.045195 0.000872734
v  -0.0160194 0.00129525 0.109144
v  0.0424346 0.0183174 0.0921958
v  0.0450462 0.0183266 0.0855205
v  0.0505718 -0.0147427 0.0665108
v  0.0474745 -0.0095727 0.0861654
v  0.00771587 0.0171866 0.108234
v  -0.00434596 0.00296304 0.111052
v  0.0152835 0.0100143 0.108356
v  -0.0327777 -0.0339139 0.090005
v  -0.121548 0.037507 0.0222519
v  -0.0223471 -0.0476243 0.0661523
v  -0.0235224 -0.0499681 0.000617043
v  -0.0106811 -0.0542888 0.000561746
v  0.00571549 -0.048166 0.0861433
v  -0.132118 0.123998 -0.0240179
v  -0.136445 0.123998 -0.011417
v  -0.125335 0.124 -0.0346699
v  0.01495 -0.0531372 0.000568479
v  0.00407301 -0.0551497 0.000622712
v  -0.0860069 0.0375729 -0.0448194
v  0.0317744 0.0338598 0.0916756
v  -0.107874 0.0301999 -0.0323392
v  -0.0950795 0.0309477 -0.0397723
v  -0.0319924 -0.041577 0.0668301
v  -0.120676 0.026656 0.00308607
v  -0.132852 0.08527 0.0175676
v  -0.128322 0.0524202 0.0153927
v  -0.12722 0.0651773 0.023866
v  -0.129377 0.0959188 0.0271857
v  -0.12201 0.0745207 0.0337353
v  -0.12359 0.0421127 -0.0211134
v  -0.126198 0.0363929 -0.00920672
v  -0.130713 0.06118 -0.0132701
v  -0.123064 0.0358186 -0.0177239
v  -0.120488 0.0276725 -0.00954927
v  0.0383281 0.0297736 0.0856361
v  0.00276386 0.0122881 0.109876
v  0.0325199 0.0171497 0.100966
v  -0.00480175 -0.0165821 0.108757
v  -0.0161754 -0.0332713 0.100932
v  -0.00130444 -0.0367864 0.100922
v  -0.00662394 -0.0462178 0.0914974
v  -0.00734275 -0.0521239 0.0669492
v  -0.0942551 0.106407 -0.0534897
v  -0.136806 0.0989925 -0.00369424
v  -0.127978 0.0398431 -0.0044483
v  -0.130818 0.0522117 -0.00148325
v  -0.0810356 0.0566239 -0.0491713
v  -0.113825 0.0386823 -0.0327643
v  -0.105099 0.0354588 -0.037803
v  -0.0976605 0.0852413 -0.0510581
v  -0.105004 0.073322 -0.0467454
v  -0.105042 0.102325 -0.0496378
v  -0.0959132 0.0383645 -0.043246
v  -0.125088 0.0380429 0.0147857
v  -0.121732 0.0312471 0.0143147
v  -0.135274 0.084244 0.00617867
v  -0.132355 0.0634132 0.0070059
v  -0.127128 0.0647481 -0.0238863
v  0.00712987 -0.0452175 0.0930405
v  0.00410448 -0.019016 0.107912
v  -0.0176536 -0.0435023 0.0908335
v  -0.0261703 -0.0390147 0.0905425
v  -0.131688 0.0870915 -0.0208239
v  -0.129765 0.106224 -0.0276716
v  -0.105467 0.0423271 -0.0402281
v  -0.127336 0.0382521 0.00600866
v  -0.124648 0.0319992 0.00332728
v  -0.118012 0.0367743 -0.0271656
v  -0.135538 0.0973064 -0.0117315
v  -0.134277 0.0743398 -0.00428955
v  -0.119562 0.0540339 -0.0315304
v  -0.124401 0.0824655 -0.0325574
v  -0.121956 0.10226 -0.0378733
v  -0.114429 0.0877588 -0.0429899
v  -0.112995 0.0602612 -0.0394249
v  -0.133811 0.107879 -0.019222
v  -0.0937211 0.0530713 -0.0472531

# 0 UV coordinates

# 300 vertex normals
vn 0.41652 -0.503163 0.757191
vn 0.558164 -0.311505 0.769037
vn -6.17751e-06 1 1.04399e-05
vn 0.761222 0.564834 -0.318597
vn -0.0025177 0.999995 0.00186789
vn 0.295033 0.643793 0.706036
vn 0.784035 0.620318 -0.0222353
vn 0.00113157 0.999999 -0.000543934
vn 0.618486 -0.766089 0.174877
vn 0.624352 -0.77967 0.0479543
vn 0.682908 -0.69843 0.214083
vn 0.000118504 1 0.000151079
vn 0.555264 -0.303589 0.774284
vn 0.336687 -0.183089 0.923645
vn 0.789408 -0.436239 0.431892
vn -0.000888894 0.999999 0.000622647
vn 0.000420549 1 -3.70425e-05
vn 0.170709 -0.290631 -0.941484
vn 0.225384 -0.222052 -0.948628
vn 0.231721 0.607062 0.760119
vn 0.71659 0.669128 0.196893
vn 0.975253 0.215151 0.0508989
vn 0.465979 -0.855465 0.225928
vn 0.71474 -0.698585 0.0335626
vn 0.781329 -0.598775 0.176048
vn 0.793942 -0.606327 0.044979
vn 0.586117 -0.703686 0.401612
vn 0.664455 -0.676024 0.318576
vn 0.242659 -0.19477 -0.950359
vn 0.294186 -0.130243 -0.946832
vn -0.659551 -0.0911437 0.746114
vn -0.314043 0.22571 0.922189
vn -0.296726 0.240888 0.924081
vn -0.770782 -0.0280648 0.63648
vn -0.432664 0.127502 0.892494
vn -0.36206 0.105943 0.926115
vn 0.792096 -0.495685 0.356203
vn 0.67043 -0.045044 0.740604
vn 0.904834 -0.0902092 0.416098
vn 0.378245 -0.0417317 0.924765
vn 0.359095 -0.0698546 0.930683
vn 0.637828 -0.0681863 0.767155
vn 0.299755 -0.210951 0.930401
vn 0.181888 -0.0740975 0.980523
vn 0.349277 -0.497579 0.793991
vn -0.71998 -0.253041 0.646219
vn -0.32875 -0.181148 0.926881
vn 6.24849e-05 1 7.4712e-05
vn -0.0104783 0.465242 0.885121
vn -0.0998905 0.385017 0.917488
vn -0.981084 -0.000846339 0.193579
vn 0.322932 0.0289884 -0.945978
vn 0.275729 -0.0599119 -0.959367
vn -0.000669166 1 0.000778916
vn 0.00113147 0.999998 -0.00160666
vn 0.0526028 -0.0340405 -0.998035
vn 0.337001 -0.0765963 -0.938383
vn 0.000161887 1 0.000112692
vn 0.432537 0.0302337 -0.901109
vn 0.543237 0.170399 -0.822105
vn 0.84998 0.524896 0.0449387
vn 0.315156 -0.106006 -0.943101
vn 0.0436013 -0.124854 -0.991217
vn 0.509598 -0.859821 0.0319114
vn 0.337539 -0.923355 0.182983
vn 0.46932 -0.825683 0.313028
vn 0.853554 -0.519865 0.0344383
vn -0.592291 -0.0051051 0.805708
vn -0.00129003 0.999996 -0.00256195
vn -0.635748 -0.0527704 0.77009
vn -0.56413 -0.74927 -0.346916
vn -0.340419 -0.096248 0.935335
vn 0.910139 0.230095 0.344533
vn 0.90716 0.225568 0.355219
vn 0.894648 -0.401271 0.196435
vn 0.84629 -0.486203 0.217716
vn 0.920947 -0.31587 0.228216
vn 0.897433 -0.0816482 0.43353
vn 0.975665 -0.118021 0.184796
vn -0.224768 0.289499 0.930414
vn 0.138836 0.372054 0.917769
vn -0.0869366 -0.0995032 0.991232
vn 0.241907 0.0742276 0.967456
vn -0.640064 -0.357762 0.679945
vn -0.627629 -0.423641 0.653154
vn -0.742224 -0.509102 0.435796
vn -0.318501 -0.947096 0.0395826
vn 0.263076 -0.939008 0.221482
vn -8.2933e-05 1 0.000823141
vn -0.000156772 1 0.0005084
vn -4.68832e-05 0.999999 0.00114456
vn 0.265148 -0.0121105 -0.964132
vn -1.46708e-05 1 -1.80317e-05
vn -5.5139e-05 1 0.000121657
vn 0.0670937 -0.387387 -0.919472
vn 0.0509625 -0.399149 -0.915469
vn 0.120477 -0.341138 -0.932261
vn 0.353382 0.662485 0.660481
vn 0.78524 0.617892 0.0401037
vn 0.722052 0.45883 -0.5178
vn 0.635816 0.325712 -0.699749
vn 0.990587 -0.129552 0.044192
vn 0.951128 0.306847 0.0346335
vn 0.955596 0.215916 0.200539
vn 0.95937 0.205982 0.192824
vn -0.0230483 -0.457927 -0.888691
vn -0.353497 -0.648918 -0.673755
vn -0.479611 -0.711174 -0.514009
vn -0.420704 -0.686475 -0.593094
vn -0.104572 -0.508096 -0.854929
vn 0.0502835 -0.0357879 -0.998094
vn 0.953802 -0.298466 0.0343429
vn 0.344726 -0.937514 0.0472484
vn 0.274491 -0.157632 -0.948582
vn -0.685819 -0.697586 0.207428
vn -0.925603 -0.150636 0.347228
vn -0.80197 -0.0956227 0.589662
vn -0.92578 -0.219123 -0.308086
vn -0.9143 -0.248632 -0.319746
vn -0.627602 -0.775227 -0.0716766
vn -0.594357 -0.761455 -0.258703
vn -0.62705 -0.777971 0.0396204
vn -0.369942 -0.0497088 0.927724
vn 0.837552 0.509056 0.198416
vn 0.901153 -0.301828 0.311164
vn -0.171824 0.0791864 0.98194
vn 0.159492 0.165057 0.973303
vn 0.139732 0.164035 0.976508
vn 0.361069 0.110632 0.925953
vn 0.347141 0.124193 0.929553
vn 0.239843 0.268921 0.932822
vn -0.0807329 -0.134947 0.987558
vn 0.233552 -0.0327255 0.971793
vn -0.0875705 -0.373313 0.923563
vn -0.153958 -0.653607 0.741009
vn -0.236048 -0.290184 0.927402
vn -0.208112 -0.295331 0.932453
vn -0.289171 -0.956185 0.0457228
vn 0.390203 -0.0139469 -0.920623
vn -0.231509 0.0118284 -0.972761
vn -0.998629 -0.0410166 0.0325127
vn -0.970779 -0.186738 -0.150722
vn 0.000429252 0.999999 -0.00103866
vn 0.0395562 -0.130242 -0.990693
vn 0.182002 -0.982769 0.0322669
vn 0.516117 0.715777 0.470411
vn 0.676492 0.684892 0.270707
vn 0.715059 0.669609 0.200783
vn 0.0171029 0.345779 0.93816
vn 0.862032 0.505204 0.0408538
vn 0.997748 0.059603 0.0307649
vn 0.00686554 -0.998883 0.046751
vn -0.565353 -0.431874 -0.702752
vn -0.389095 -0.0919214 -0.9166
vn -0.195536 -0.570931 -0.797373
vn -0.35623 -0.428863 -0.830167
vn 0.916634 -0.397005 0.0465714
vn 0.990047 -0.133365 0.0449584
vn -0.826083 -0.432994 0.360699
vn -0.741816 -0.518056 0.425825
vn -0.967821 -0.127019 0.21723
vn -0.849241 -0.202532 0.487617
vn -0.828098 -0.11732 0.54817
vn -0.675957 -0.115303 0.727865
vn -0.889455 -0.110325 0.443507
vn -0.803841 -0.0469373 0.592989
vn -0.953198 -0.148877 0.263152
vn -0.972999 -0.0850842 0.214553
vn -0.909784 -0.18756 -0.37029
vn -0.153858 -0.0520368 0.986722
vn -0.359957 0.0964426 0.927971
vn 0.844268 0.493382 0.20925
vn 0.974821 -0.0640133 0.213603
vn -0.0772429 0.182489 0.980169
vn -0.114394 0.178472 0.977273
vn 0.293292 0.247834 0.923341
vn 0.516191 0.433651 0.738575
vn 0.208544 -0.652596 0.728442
vn 0.294005 -0.851754 0.433678
vn 0.247043 -0.908285 0.337622
vn 0.226499 -0.321181 0.919533
vn 0.154743 -0.327459 0.932108
vn -0.0294828 -0.698159 0.715335
vn 0.100439 -0.623946 0.774986
vn -0.29104 -0.933111 0.211186
vn -0.528468 -0.847816 0.0439318
vn -0.504084 -0.862733 0.0398936
vn -0.0512698 -0.970635 0.235028
vn -0.355575 -0.63006 0.690355
vn -0.469065 -0.533434 0.703865
vn -0.438385 -0.538657 0.719491
vn 0.124757 -0.0933961 -0.987782
vn -0.958409 -0.0491455 0.281135
vn -0.923067 -0.139261 -0.358544
vn -0.843493 -0.00127896 -0.537139
vn 0.127111 -0.0934325 -0.987478
vn 0.140875 -0.187946 -0.972024
vn 0.644852 0.189479 0.740449
vn 0.636663 0.195881 0.745849
vn 0.0196166 -0.981762 0.189097
vn -0.0583614 -0.997665 0.0354689
vn -0.557996 -0.302653 -0.772684
vn -0.39366 -0.554263 -0.733365
vn -0.470666 -0.0258256 -0.881934
vn 0.335834 -0.94083 0.0453242
vn -0.921865 -0.386906 -0.0216293
vn -0.89562 -0.44464 -0.0126129
vn -0.690346 -0.690098 0.217224
vn -0.996298 -0.0718398 0.0472242
vn -0.945686 -0.222702 0.236817
vn -0.740291 -0.340345 0.579771
vn -0.799499 -0.16447 0.577712
vn -0.820623 -0.322624 -0.471691
vn 0.574029 0.4173 0.704522
vn 0.731743 0.516767 0.444414
vn 0.818271 0.476997 0.320792
vn 0.0386521 0.00210076 0.999251
vn 0.04185 0.093524 0.994737
vn 0.111144 -0.227757 0.967354
vn 0.0290471 -0.231099 0.972496
vn 0.0595662 -0.381083 0.92262
vn -0.60625 -0.760962 0.23108
vn -0.459745 -0.857574 0.230652
vn -0.507912 -0.834186 0.214847
vn -0.245679 -0.940797 0.233542
vn -0.208163 -0.671706 0.71097
vn -0.901404 -0.0309496 0.431872
vn -1.6725e-05 1 -5.76946e-06
vn -0.996823 -0.0100337 -0.0790101
vn -0.988296 -0.0318313 -0.149188
vn -0.994774 -0.102086 0.00180605
vn -0.975722 -0.170026 -0.138047
vn -0.95602 -0.208023 -0.206768
vn -0.741492 -0.226306 -0.631645
vn -0.804765 -0.212422 -0.554283
vn -0.819573 -0.194137 -0.539083
vn -0.863113 -0.10857 -0.493202
vn -0.684458 0.00103634 -0.729051
vn -0.800296 -0.0362054 -0.598511
vn -0.803719 -0.0596843 -0.592008
vn -0.343682 -0.0524203 -0.937622
vn -0.284797 -0.0434465 -0.957603
vn -0.481647 -0.0875936 -0.871977
vn -0.59636 -0.215712 -0.77319
vn -0.691174 -0.106563 -0.714789
vn -0.973024 -0.229355 0.0248985
vn -0.787385 -0.593015 0.1684
vn -0.976509 -0.19814 0.0846802
vn -0.959311 -0.199282 0.200022
vn -0.881935 -0.205536 0.4242
vn -0.887971 -0.216848 0.405566
vn -0.704163 -0.174361 0.688297
vn -0.92079 -0.0490292 0.386966
vn -0.81173 -0.521153 -0.263617
vn -0.800677 -0.531171 -0.277082
vn 0.0138644 0.305196 0.952189
vn 0.176878 -0.15462 0.972012
vn -0.0109207 -0.363182 0.931654
vn 0.0233442 -0.920975 0.388922
vn 0.366626 -0.0433714 -0.929357
vn -0.945791 0.00268984 -0.324766
vn -0.67335 -0.194277 -0.713342
vn -0.861758 -0.0919291 -0.498921
vn -0.404452 -0.323642 -0.85538
vn -0.367486 -0.193102 -0.909761
vn -0.373834 -0.185505 -0.908755
vn -0.701631 -0.144635 -0.697707
vn -0.683378 -0.128792 -0.718615
vn -0.803313 -0.157488 -0.574357
vn -0.988187 -0.151758 0.0213617
vn -0.83499 -0.543311 -0.0872002
vn -0.903885 -0.0320058 -0.426577
vn -0.175044 -0.433667 -0.883907
vn -0.170769 -0.235246 -0.956816
vn -0.539293 -0.135863 -0.831087
vn -0.618702 -0.0443945 -0.784371
vn -0.522465 -0.0517567 -0.851089
vn -0.989886 -0.137325 0.0356117
vn -0.9547 -0.115835 -0.274099
vn -0.802359 -0.59385 -0.0596767
vn -0.140146 -0.0583307 -0.988411
vn -0.0803634 -0.0601598 -0.994949
vn -0.72315 -0.502592 -0.473768
vn -0.753848 -0.477238 -0.451617
vn -0.498583 -0.171237 -0.84976
vn -0.203031 -0.139494 -0.969185
vn -0.866642 -0.457656 0.198702
vn -0.870263 -0.444526 0.212221
vn -0.96403 -0.0296515 -0.264134
vn -0.970603 -0.120765 -0.208197
vn -0.944912 -0.0718822 -0.319334
vn -0.90482 -0.0599106 -0.421558
vn -0.309672 -0.148995 -0.939097
vn -0.175003 -0.0845341 -0.980932
vn -0.986003 -0.0978831 -0.13497
vn -0.09183 -0.198921 -0.975704
vn 0.00637169 -0.224272 -0.974506
vn -0.623344 -0.468712 -0.625901
vn -0.628962 -0.504304 -0.591679
vn -0.101624 -0.16668 -0.98076

# Mesh '<STL_BINARY>' with 300 faces
g <STL_BINARY>
usemtl DefaultMaterial
f  1//1 2//1 3//1
f  3//2 2//2 4//2
f  5//3 6//3 7//3
f  8//4 9//4 10//4
f  11//5 5//5 12//5
f  7//6 6//6 13//6
f  5//7 8//7 10//7
f  14//8 10//8 9//8
f  15//9 16//9 17//9
f  15//10 17//10 18//10
f  15//11 19//11 16//11
f  20//12 21//12 5//12
f  22//13 3//13 4//13
f  23//14 3//14 22//14
f  2//15 24//15 4//15
f  14//16 12//16 5//16
f  14//17 5//17 10//17
f  25//18 26//18 18//18
f  27//19 18//19 26//19
f  6//20 28//20 13//20
f  29//21 30//21 5//21
f  31//22 32//22 33//22
f  16//23 34//23 17//23
f  15//24 18//24 27//24
f  15//25 35//25 19//25
f  35//26 15//26 27//26
f  1//27 16//27 2//27
f  16//28 19//28 2//28
f  27//29 26//29 36//29
f  36//30 37//30 38//30
f  39//31 40//31 41//31
f  42//32 21//32 20//32
f  20//33 43//33 42//33
f  39//34 44//34 45//34
f  20//35 41//35 43//35
f  41//36 42//36 43//36
f  19//37 24//37 2//37
f  4//38 46//38 47//38
f  46//39 4//39 48//39
f  49//40 22//40 47//40
f  22//41 49//41 23//41
f  22//42 4//42 47//42
f  3//43 23//43 50//43
f  51//44 23//44 52//44
f  53//45 1//45 3//45
f  40//46 54//46 55//46
f  56//47 57//47 40//47
f  6//48 5//48 21//48
f  6//49 21//49 28//49
f  28//50 21//50 58//50
f  59//51 60//51 61//51
f  12//52 14//52 62//52
f  63//53 62//53 37//53
f  64//54 65//54 5//54
f  5//55 11//55 64//55
f  11//56 12//56 63//56
f  37//57 62//57 66//57
f  7//58 29//58 5//58
f  14//59 31//59 67//59
f  68//60 31//60 14//60
f  32//61 8//61 30//61
f  66//62 38//62 37//62
f  69//63 70//63 36//63
f  18//64 17//64 25//64
f  17//65 34//65 71//65
f  1//66 34//66 16//66
f  35//67 27//67 38//67
f  20//68 44//68 41//68
f  20//69 5//69 44//69
f  44//70 39//70 41//70
f  72//71 73//71 74//71
f  75//72 40//72 57//72
f  48//73 76//73 46//73
f  48//74 77//74 76//74
f  24//75 35//75 78//75
f  24//76 19//76 35//76
f  79//77 24//77 78//77
f  79//78 48//78 4//78
f  79//79 78//79 33//79
f  42//80 58//80 21//80
f  80//81 13//81 28//81
f  57//82 51//82 81//82
f  52//83 49//83 82//83
f  56//84 40//84 55//84
f  83//85 56//85 55//85
f  84//86 83//86 55//86
f  85//87 86//87 87//87
f  88//88 71//88 34//88
f  5//89 61//89 45//89
f  5//90 45//90 44//90
f  59//91 61//91 5//91
f  12//92 62//92 63//92
f  89//93 90//93 5//93
f  89//94 5//94 91//94
f  26//95 92//95 93//95
f  93//96 94//96 26//96
f  26//97 25//97 92//97
f  7//98 13//98 95//98
f  30//99 8//99 5//99
f  68//100 9//100 8//100
f  68//101 14//101 9//101
f  67//102 33//102 66//102
f  31//103 68//103 32//103
f  77//104 48//104 32//104
f  32//105 48//105 33//105
f  93//106 87//106 94//106
f  96//107 97//107 86//107
f  73//108 96//108 74//108
f  96//109 86//109 74//109
f  97//110 94//110 87//110
f  70//111 11//111 63//111
f  78//112 38//112 66//112
f  71//113 25//113 17//113
f  36//114 38//114 27//114
f  98//115 83//115 99//115
f  100//116 101//116 102//116
f  103//117 104//117 39//117
f  105//118 106//118 107//118
f  108//119 106//119 105//119
f  74//120 99//120 109//120
f  109//121 72//121 74//121
f  99//122 74//122 98//122
f  40//123 75//123 41//123
f  110//124 32//124 30//124
f  79//125 4//125 24//125
f  81//126 42//126 75//126
f  52//127 80//127 111//127
f  52//128 82//128 80//128
f  49//129 47//129 112//129
f  82//130 49//130 112//130
f  13//131 80//131 82//131
f  57//132 113//132 51//132
f  23//133 49//133 52//133
f  114//134 115//134 113//134
f  114//135 116//135 115//135
f  114//136 57//136 56//136
f  114//137 113//137 57//137
f  117//138 85//138 87//138
f  62//139 14//139 67//139
f  118//140 64//140 11//140
f  119//141 60//141 59//141
f  120//142 121//142 107//142
f  91//143 5//143 65//143
f  36//144 122//144 69//144
f  93//145 92//145 71//145
f  95//146 29//146 7//146
f  29//147 95//147 110//147
f  110//148 30//148 29//148
f  80//149 28//149 58//149
f  68//150 8//150 32//150
f  67//151 31//151 33//151
f  93//152 71//152 117//152
f  123//153 124//153 96//153
f  125//154 126//154 127//154
f  97//155 87//155 86//155
f  128//156 97//156 124//156
f  35//157 38//157 78//157
f  78//158 66//158 33//158
f  84//159 129//159 130//159
f  130//160 83//160 84//160
f  100//161 131//161 132//161
f  54//162 102//162 84//162
f  103//163 102//163 104//163
f  39//164 104//164 40//164
f  103//165 100//165 102//165
f  45//166 103//166 39//166
f  132//167 101//167 100//167
f  100//168 60//168 131//168
f  133//169 105//169 107//169
f  75//170 57//170 81//170
f  41//171 75//171 42//171
f  32//172 110//172 77//172
f  48//173 79//173 33//173
f  81//174 111//174 58//174
f  58//175 42//175 81//175
f  112//176 13//176 82//176
f  95//177 13//177 112//177
f  134//178 1//178 53//178
f  134//179 34//179 1//179
f  88//180 34//180 134//180
f  50//181 53//181 3//181
f  53//182 50//182 135//182
f  115//183 116//183 134//183
f  115//184 134//184 53//184
f  117//185 136//185 85//185
f  85//186 98//186 74//186
f  74//187 86//187 85//187
f  117//188 88//188 116//188
f  114//189 137//189 136//189
f  137//190 56//190 83//190
f  137//191 114//191 56//191
f  63//192 36//192 70//192
f  60//193 100//193 61//193
f  133//194 107//194 138//194
f  139//195 89//195 91//195
f  63//196 37//196 36//196
f  122//197 36//197 26//197
f  76//198 47//198 46//198
f  112//199 47//199 76//199
f  117//200 71//200 88//200
f  87//201 93//201 117//201
f  124//202 123//202 140//202
f  97//203 96//203 124//203
f  127//204 65//204 64//204
f  25//205 71//205 92//205
f  141//206 106//206 142//206
f  120//207 106//207 141//207
f  130//208 99//208 83//208
f  60//209 119//209 131//209
f  141//210 129//210 101//210
f  55//211 54//211 84//211
f  54//212 104//212 102//212
f  105//213 143//213 108//213
f  95//214 112//214 76//214
f  76//215 110//215 95//215
f  77//216 110//216 76//216
f  51//217 52//217 81//217
f  81//218 52//218 111//218
f  135//219 50//219 51//219
f  51//220 113//220 135//220
f  135//221 115//221 53//221
f  98//222 137//222 83//222
f  137//223 85//223 136//223
f  137//224 98//224 85//224
f  116//225 136//225 117//225
f  116//226 114//226 136//226
f  61//227 103//227 45//227
f  90//228 59//228 5//228
f  90//229 119//229 59//229
f  144//230 119//230 90//230
f  145//231 131//231 119//231
f  107//232 121//232 145//232
f  120//233 107//233 106//233
f  143//234 146//234 123//234
f  146//235 143//235 105//235
f  146//236 105//236 133//236
f  147//237 133//237 138//237
f  148//238 91//238 65//238
f  139//239 91//239 148//239
f  147//240 139//240 148//240
f  125//241 64//241 118//241
f  127//242 64//242 125//242
f  126//243 149//243 127//243
f  150//244 140//244 123//244
f  147//245 148//245 149//245
f  141//246 121//246 120//246
f  142//247 99//247 130//247
f  121//248 141//248 132//248
f  132//249 141//249 101//249
f  101//250 84//250 102//250
f  101//251 129//251 84//251
f  54//252 40//252 104//252
f  103//253 61//253 100//253
f  108//254 109//254 106//254
f  109//255 108//255 72//255
f  58//256 111//256 80//256
f  23//257 51//257 50//257
f  115//258 135//258 113//258
f  116//259 88//259 134//259
f  62//260 67//260 66//260
f  89//261 151//261 90//261
f  146//262 150//262 123//262
f  138//263 139//263 147//263
f  124//264 140//264 128//264
f  128//265 140//265 152//265
f  152//266 140//266 126//266
f  147//267 150//267 146//267
f  147//268 149//268 150//268
f  147//269 146//269 133//269
f  132//270 145//270 121//270
f  109//271 142//271 106//271
f  89//272 139//272 151//272
f  97//273 128//273 94//273
f  128//274 152//274 94//274
f  150//275 149//275 126//275
f  65//276 149//276 148//276
f  65//277 127//277 149//277
f  131//278 145//278 132//278
f  107//279 144//279 138//279
f  142//280 109//280 99//280
f  11//281 70//281 69//281
f  69//282 118//282 11//282
f  72//283 143//283 73//283
f  143//284 72//284 108//284
f  126//285 140//285 150//285
f  152//286 125//286 69//286
f  130//287 141//287 142//287
f  130//288 129//288 141//288
f  151//289 144//289 90//289
f  107//290 145//290 144//290
f  138//291 144//291 151//291
f  139//292 138//292 151//292
f  126//293 125//293 152//293
f  69//294 125//294 118//294
f  144//295 145//295 119//295
f  94//296 152//296 122//296
f  94//297 122//297 26//297
f  96//298 143//298 123//298
f  143//299 96//299 73//299
f  152//300 69//300 122//300

