# File produced by Open Asset Import Library (http://www.assimp.sf.net)
# (assimp v3.1.187496374)

mtllib link5.obj.mtl

# 152 vertex positions
v  -0.0431297 0.0345984 -0.258994
v  -0.0494913 0.104632 -0.00797341
v  -0.0275999 0.0884093 -0.173066
v  -0.0292369 0.0157964 0.0380748
v  -0.0389992 0.0158124 0.0282289
v  -0.00786015 -0.0514125 -0.216166
v  0.0114866 0.0542361 -0.258996
v  -0.00797034 0.0545813 -0.259003
v  -0.000706977 0.0853749 -0.19883
v  0.0452178 0.0158122 0.0161791
v  0.0452456 0.101018 0.0243984
v  0.0401474 0.0158034 0.0263116
v  0.05258 0.0174219 -0.259
v  0.0505261 0.103338 0.003046
v  0.0550834 -0.00232089 -0.259005
v  0.0476676 0.0158614 0.00572593
v  0.031288 0.0158058 0.0365844
v  0.0305157 0.0989522 0.0420534
v  0.0201633 0.0982485 0.0481919
v  -0.0490085 0.101881 0.0147023
v  -0.0504056 0.10394 0.00026232
v  -0.0476623 0.0158612 0.00578372
v  -0.0454135 0.101011 0.0238831
v  -0.0403533 0.100177 0.0322553
v  -0.0386603 0.108339 0.0247012
v  -0.0502983 0.0223771 -0.259002
v  -0.0234528 -0.0479827 -0.221382
v  -0.0452524 0.0158049 0.016002
v  0.0374091 0.0998212 0.035842
v  -0.0176322 0.0158056 0.0447858
v  -0.00464902 0.097802 0.0521683
v  -0.0198253 0.0985332 0.0482747
v  -0.00265461 0.0158048 0.0479836
v  0.0151821 0.116651 0.0355168
v  0.0103223 0.125617 0.027241
v  0.00744547 0.117539 0.0372639
v  0.0495139 0.104438 -0.00803525
v  0.0434737 0.034016 -0.258998
v  -0.0113925 0.0843027 -0.199691
v  -0.0222302 0.0840403 -0.1947
v  -0.026016 0.0489773 -0.258996
v  -0.0157678 0.128209 0.0107058
v  -0.0164345 0.125262 0.0250506
v  -0.00421123 0.128983 0.0165327
v  -0.00297856 0.125747 0.0289296
v  -0.0341411 0.0993251 0.0390974
v  -0.0253971 0.0985604 0.04545
v  -0.027126 0.105324 0.0393822
v  0.0446027 0.1093 0.00972366
v  0.0485813 0.10181 0.015875
v  0.00570225 0.129778 0.00786264
v  -0.00680683 0.129518 0.0113243
v  0.00823771 0.128888 0.0147072
v  0.0202673 0.117145 0.0322446
v  0.021609 0.124624 0.021486
v  0.0271491 0.0882184 -0.175367
v  0.0169703 0.0828636 -0.200849
v  0.0309746 0.0457553 -0.259001
v  0.0108505 0.0851653 -0.197911
v  0.0101799 0.129396 -0.000721459
v  0.0182858 0.127374 -0.00525426
v  0.00864591 0.128414 -0.00944393
v  0.0521465 -0.0174772 -0.243011
v  0.0543174 -0.010114 -0.258986
v  0.0026027 0.105303 0.0479468
v  0.01317 0.105957 0.0454911
v  -0.0282014 0.123798 0.0136459
v  -0.0329027 0.122164 0.000226109
v  -0.0414176 0.1135 0.00759432
v  -0.014582 0.128709 0.000608123
v  -0.00404661 0.129904 0.00255941
v  -0.0165431 0.127324 -0.0078957
v  -0.00633969 0.129112 -0.00677255
v  -0.034761 0.11653 0.0171931
v  -0.0434734 0.108215 0.0158497
v  -0.0284354 0.118371 0.0235507
v  -0.0539719 0.0115474 -0.259007
v  0.00845737 0.0978552 0.0515797
v  0.014791 0.0157738 0.045936
v  -0.0148123 -0.0506939 -0.219569
v  -0.00514606 -0.0545972 -0.245451
v  -0.0111501 -0.0530911 -0.233902
v  -0.0115895 -0.0538088 -0.248529
v  0.0330692 0.121645 -0.00294267
v  0.0245115 0.125729 -0.00205197
v  0.0314263 0.122907 0.00690866
v  0.0401915 0.115285 0.00394908
v  0.0425233 0.112999 -0.00625599
v  -0.00800155 0.106305 0.0465022
v  -0.000100997 0.117598 0.0381533
v  0.0182157 0.127911 0.00818936
v  0.023166 0.0849566 -0.191089
v  0.0473394 0.107777 -1.51997e-05
v  0.0146662 0.0894052 -0.183272
v  -0.0202999 0.089922 -0.17715
v  0.00313473 -0.0551279 -0.258948
v  -0.0015008 -0.0540861 -0.234891
v  0.0369915 -0.0408355 -0.231671
v  0.026981 0.106874 0.0380555
v  0.0207982 0.10501 0.0432091
v  -0.0209443 0.127182 0.00468544
v  -0.010877 0.0890852 -0.186003
v  0.000366808 0.0898177 -0.185536
v  -0.0234611 0.125996 -0.00338629
v  -0.0218753 0.11739 0.0308766
v  -0.0308965 0.110555 0.0311087
v  -0.0550165 -0.00438795 -0.258986
v  -0.0532127 -0.0139108 -0.245524
v  0.0411203 0.112056 0.0135454
v  0.0325105 0.117444 0.0194622
v  0.0386729 0.107987 0.0252563
v  0.0265211 0.124106 0.0157984
v  -0.00599286 0.115866 0.039041
v  -0.0158787 0.111456 0.0401963
v  -0.0132128 0.118951 0.0338964
v  0.00995996 -0.0507371 -0.214368
v  0.0174026 -0.0501811 -0.220985
v  -0.0410612 0.114696 -0.00403508
v  -0.0117632 -0.0538961 -0.259001
v  0.00343462 -0.0515255 -0.2143
v  0.0296286 0.112933 0.0296168
v  0.0488723 -0.0254256 -0.239856
v  0.0408193 -0.0371286 -0.234122
v  0.0429261 -0.0344745 -0.259
v  0.0451441 -0.0316053 -0.235642
v  0.0340123 -0.0434612 -0.258999
v  0.0112114 -0.0539775 -0.259006
v  0.0128038 -0.0534418 -0.244006
v  0.0267557 -0.0481624 -0.237477
v  0.0200073 -0.0512251 -0.239239
v  0.0225281 -0.0502768 -0.258997
v  0.0315654 -0.0452086 -0.23463
v  -0.0460709 -0.0302314 -0.2364
v  -0.0464919 -0.0297098 -0.259049
v  -0.0423511 -0.0353167 -0.234111
v  -0.0498712 -0.0235233 -0.241469
v  -0.0520371 -0.0180928 -0.259016
v  -0.0321645 -0.0448436 -0.237578
v  -0.036886 -0.0408478 -0.259013
v  -0.0255127 -0.048914 -0.259017
v  -0.0254716 -0.0487866 -0.236436
v  -0.0313379 -0.0446826 -0.22725
v  0.0487483 -0.0257148 -0.259002
v  0.00818003 -0.0534604 -0.232618
v  0.0241036 -0.0481842 -0.223965
v  0.0310893 -0.0441283 -0.223477
v  -0.0178172 0.0870815 -0.188987
v  -0.0497202 -0.00335146 -0.264554
v  -0.0497018 0.00347233 -0.264544
v  -0.0380371 -0.0398825 -0.232196
v  -0.0196949 -0.0513601 -0.242356
v  -0.0184352 -0.0512724 -0.232533

# 0 UV coordinates

# 300 vertex normals
vn -0.848602 0.503614 -0.162011
vn -0.233617 -0.944712 0.230093
vn 0.0159383 0.889307 -0.457032
vn 0.893452 -0.0434174 0.447054
vn 0.9915 0.125732 -0.0334516
vn 0.999041 -0.0317211 0.0301643
vn 0.511943 -0.0516448 0.857466
vn -0.995374 -0.0251901 0.0927138
vn -0.676073 0.571133 0.465544
vn -0.856885 -0.0382889 0.514083
vn -0.851277 0.499434 -0.160912
vn -0.397585 -0.894627 0.203885
vn 0.671749 -0.0424055 0.739564
vn -0.139258 -0.9602 0.242122
vn -0.250374 -0.0474182 0.966987
vn -0.208482 -0.0549064 0.976484
vn 0.229885 0.724441 0.649875
vn 0.866175 0.475346 -0.154234
vn -0.0532264 0.891531 -0.449822
vn -0.265062 0.853013 -0.449568
vn -0.972606 -0.0389814 0.229167
vn -0.161353 0.968154 0.191424
vn -0.109889 0.95899 0.261272
vn -0.709256 -0.0502518 0.703158
vn -0.472415 0.518564 0.712682
vn -0.589724 -0.0444974 0.806378
vn 0.794332 0.577283 0.189158
vn 0.988807 -0.0278199 0.146585
vn 0.0136672 0.992207 0.123845
vn 0.352958 0.747029 0.563354
vn 0.194896 0.956463 0.217241
vn 0.0409931 0.96775 0.248556
vn 0.847384 0.50558 -0.162265
vn 0.358357 0.823742 -0.439352
vn 0.118451 0.886373 -0.447562
vn 0.16577 0.976311 -0.139058
vn 0.979992 -0.194186 0.0436733
vn 0.994618 -0.0976757 0.0345703
vn 0.14126 0.618774 0.772764
vn -0.64676 0.750616 0.135193
vn -0.154203 0.972107 0.17672
vn -0.114145 0.993433 0.00784241
vn -0.158086 0.979724 -0.123081
vn -0.673137 0.647638 0.357003
vn -0.290915 0.939747 0.179565
vn -0.49224 0.768232 0.409292
vn -0.942074 0.319614 -0.101699
vn -0.601429 0.715764 -0.354916
vn -0.226721 0.865449 -0.446762
vn 0.0379137 0.462031 0.886053
vn 0.0450098 -0.0498257 0.997743
vn 0.116261 -0.0591994 0.991453
vn -0.333034 -0.918319 0.21396
vn -0.212577 -0.948741 0.233883
vn -0.146117 -0.987854 0.052861
vn -0.499865 -0.0538393 0.864428
vn 0.931759 -0.0351643 0.36137
vn 0.426481 0.903399 -0.0445504
vn 0.658688 0.752295 0.0135248
vn 0.672506 0.739992 -0.0121114
vn -0.451821 -0.0495424 0.890732
vn -0.370608 0.56592 0.736467
vn -0.194462 0.489697 0.84993
vn -0.0640548 0.535779 0.841925
vn -0.048948 0.615697 0.786461
vn 0.160326 0.531708 0.831614
vn 0.213395 0.959713 0.182794
vn 0.145215 0.9866 0.0743857
vn 0.647809 0.689654 -0.323606
vn 0.666378 0.67832 -0.309552
vn 0.766878 0.63108 0.116772
vn 0.0520267 0.891168 -0.450681
vn 0.394278 0.814811 -0.425003
vn 0.192397 0.928038 -0.318949
vn -0.146185 0.966632 -0.210365
vn 0.00944996 -0.998939 0.0450788
vn 0.649836 -0.745368 0.148791
vn 0.376175 0.630199 0.679221
vn 0.375903 0.630267 0.679309
vn -0.146619 0.988683 0.0317619
vn -0.310202 0.944791 0.105568
vn -0.39522 0.918199 0.0266698
vn -0.00937847 0.999112 0.0410845
vn -0.047848 0.943515 -0.327857
vn -0.249671 0.963228 -0.099278
vn -0.219674 0.975313 0.0225193
vn -0.267876 0.961719 -0.0577886
vn -0.304322 0.931565 -0.198933
vn -0.687062 0.677475 0.262627
vn -0.889458 -0.0437591 0.454917
vn -0.662014 0.711897 0.234394
vn -0.754777 0.621486 0.209921
vn -0.777905 0.607183 0.161843
vn -0.473427 0.71154 0.519208
vn -0.584846 0.651478 0.483251
vn -0.742363 -0.0438236 0.668563
vn -0.602067 0.606037 0.519841
vn -0.997813 0.0653965 -0.00957902
vn -0.670131 0.677507 -0.303164
vn 0.279108 -0.0444182 0.959232
vn 0.225598 0.49802 0.837306
vn -0.990237 -0.134178 0.0377667
vn 0.492454 -0.0558347 0.868546
vn 0.756356 -0.0493408 0.652296
vn 0.754653 0.606477 0.250369
vn 0.661249 0.654969 0.365739
vn 0.714543 0.681035 0.160062
vn 0.0433512 0.968412 0.24556
vn 0.638686 0.726185 0.254434
vn 0.637357 0.721612 0.270282
vn 0.359477 0.930308 0.0728274
vn 0.355852 0.934335 0.0196988
vn 0.678966 0.713174 0.174323
vn -0.192318 0.628532 0.753632
vn -0.344125 0.700564 0.62513
vn 0.0887389 0.762918 0.640376
vn 0.0819918 0.759443 0.645387
vn 0.146616 0.988659 0.0324991
vn 0.632478 0.756075 -0.168292
vn 0.407122 0.893966 -0.187287
vn 0.971948 0.225638 -0.0663607
vn 0.747867 0.655058 0.107678
vn 0.0402435 0.956891 -0.287646
vn 0.0781451 0.943625 -0.321659
vn 0.193984 0.926704 -0.321854
vn 0.25166 0.932981 -0.257319
vn 0.0289388 0.99915 -0.0293522
vn 0.0152276 0.995976 -0.0883129
vn 0.269939 -0.936225 0.224979
vn 0.262309 -0.93804 0.226438
vn 0.238547 0.638009 0.732147
vn 0.0210113 0.995554 0.0918163
vn -0.101657 0.993048 -0.0593471
vn -0.308191 0.930332 -0.198747
vn -0.587986 0.715144 0.377944
vn -0.612922 0.672284 0.415163
vn -0.499993 0.678222 0.538537
vn -0.760479 0.648673 -0.0299225
vn -0.0823605 -0.996538 -0.0113417
vn -0.126309 -0.991937 0.0103579
vn -0.999123 -0.0292392 0.0299879
vn -0.0315112 -0.99091 0.130784
vn 0.586547 0.665246 0.461963
vn 0.545617 0.69743 0.464643
vn 0.722273 0.602987 0.338716
vn 0.700347 0.616129 0.360416
vn 0.972981 -0.0372487 0.227859
vn 0.767361 0.638611 -0.0577364
vn -0.217147 0.672187 0.707822
vn -0.161863 0.72947 0.664586
vn -0.205215 0.759862 0.616844
vn -0.065425 0.622412 0.779951
vn -0.255608 0.567405 0.782762
vn -0.348694 0.672625 0.652678
vn 0.466513 0.697927 0.543381
vn 0.318046 0.730353 0.604509
vn 0.0954842 0.632967 0.768268
vn 0.410829 0.515534 0.75196
vn 0.429263 0.552208 0.714703
vn 0.301502 0.547109 0.780877
vn 0.294302 0.621675 0.725883
vn 0.272971 0.961311 -0.0369979
vn 0.285633 0.944776 0.160665
vn 0.817917 0.575067 -0.0175819
vn 0.00726454 0.976715 -0.21442
vn -0.0700477 0.947798 -0.311083
vn -0.114677 0.970134 -0.213752
vn 0.931475 -0.357996 0.0647552
vn 0.787485 -0.616333 0.000932212
vn 0.709899 -0.704144 -0.0150061
vn 0.693537 -0.720393 -0.00639169
vn 0.14113 -0.989782 0.0203659
vn 0.411357 -0.911433 0.00874189
vn 0.139445 -0.960025 0.24271
vn 0.510302 -0.859851 -0.0157637
vn 0.526758 -0.849977 -0.00805915
vn 0.515507 0.558131 0.650186
vn 0.0255165 0.992891 -0.116259
vn -0.689214 0.722603 0.05319
vn -0.745053 0.665444 0.0456011
vn -0.702502 0.605763 0.373553
vn -0.466209 0.636218 0.614716
vn -0.527958 0.588265 0.612539
vn -0.429577 0.883814 -0.1853
vn -0.958757 0.271649 -0.083616
vn -0.807419 -0.589977 0.00141879
vn -0.902267 -0.430621 -0.0218969
vn -0.578332 -0.815429 -0.0246207
vn -0.45102 -0.88598 0.107795
vn -0.492523 -0.85076 0.183379
vn -0.513719 -0.856228 0.0544642
vn 0.0275203 -0.968074 0.249151
vn 0.553316 0.723971 0.411956
vn 0.656937 0.557009 0.508108
vn 0.82631 -0.0368194 0.56201
vn 0.747492 0.644128 -0.162344
vn -0.111684 0.727176 0.677305
vn 0.221907 0.974335 -0.0377868
vn 0.342509 0.919318 -0.193758
vn 0.193999 0.95861 -0.208402
vn 0.222107 0.952643 -0.207701
vn 0.0623772 0.974292 -0.21648
vn 0.924591 -0.380962 -0.000235392
vn 0.941457 -0.336055 -0.0269543
vn 0.730863 -0.670552 0.127278
vn 0.625243 -0.7804 0.0068183
vn 0.0372867 -0.992721 0.114517
vn 0.310811 -0.950453 -0.00595897
vn 0.480534 -0.87204 0.0929139
vn 0.634203 -0.758037 0.152205
vn 0.483673 -0.855382 0.185426
vn 0.589619 -0.801116 0.102776
vn -0.381517 0.924209 -0.0168392
vn -0.161907 0.951323 -0.262243
vn -0.565736 0.580229 0.585898
vn -0.616121 0.76937 -0.168716
vn -0.724402 0.670097 -0.161901
vn -0.182692 0.919396 -0.348331
vn -0.131943 0.93732 -0.322525
vn -0.00585366 -0.113557 -0.993514
vn 0.00715365 -0.100429 -0.994919
vn -0.052384 -0.147853 -0.987621
vn 0.0261667 -0.0777381 -0.99663
vn -0.135099 -0.189959 -0.972452
vn 0.0365308 -0.0618727 -0.997415
vn 0.0448731 -0.0445414 -0.997999
vn -0.49804 -0.235316 -0.834615
vn 0.0488686 -0.0326944 -0.99827
vn 0.0522897 -0.0176803 -0.998475
vn 0.0529451 -0.00767091 -0.998568
vn -0.0450631 0.143968 -0.988556
vn -0.175366 0.208569 -0.962157
vn 0.0022296 0.105979 -0.994366
vn -0.414828 0.243878 -0.876608
vn -0.606306 0.206022 -0.768081
vn 0.0309286 0.0716725 -0.996949
vn -0.75534 0.0486657 -0.653523
vn -0.724847 0.00303946 -0.688903
vn 0.0440808 0.0467031 -0.997936
vn 0.050331 0.0277102 -0.998348
vn 0.0531648 0.00702168 -0.998561
vn 0.0528575 0.00142743 -0.998601
vn -0.72551 -0.688183 -0.00637038
vn -0.94665 -0.321802 0.0172607
vn -0.0907362 -0.989726 0.1105
vn -0.161245 -0.979271 0.12259
vn -0.645451 -0.763802 -0.000212029
vn -0.61081 -0.789409 0.061192
vn -0.401887 -0.91567 0.00589893
vn -0.0505286 -0.967607 0.247352
vn -0.052814 -0.967537 0.247148
vn 0.58912 0.60427 0.536466
vn -0.364563 0.571118 0.735471
vn 0.461308 0.645784 0.608405
vn 0.727558 0.685931 0.0125795
vn 0.832771 -0.553506 -0.0110853
vn 0.0519704 -0.997231 0.0531995
vn -0.335969 0.903568 -0.265875
vn -0.737117 0.58182 0.343722
vn -0.931707 -0.0351985 0.361502
vn -0.702042 -0.151135 -0.695913
vn -0.977001 -0.212359 -0.019308
vn -0.871659 -0.490088 0.00491344
vn -0.0940774 -0.992305 0.0804957
vn -0.222195 -0.969294 0.105347
vn -0.647934 -0.747042 0.148697
vn -0.646329 -0.74834 0.149148
vn -0.508314 -0.861153 0.0057846
vn 0.118836 -0.962534 0.243734
vn 0.532378 0.599596 0.597543
vn -0.395571 0.637923 0.660741
vn 0.796984 -0.594172 0.108515
vn 0.856912 -0.515458 0.00223381
vn 0.10797 -0.993257 0.0422168
vn 0.120241 -0.983518 0.135036
vn 0.292221 -0.956346 0.0031334
vn -0.0545189 0.9748 -0.216317
vn -0.274039 0.920548 -0.278376
vn -0.746571 -0.653844 0.122959
vn -0.757066 -0.652997 -0.0211106
vn -0.260676 -0.227869 -0.938149
vn -0.280339 -0.959818 0.012647
vn 0.877457 -0.472294 0.0837058
vn 0.405199 -0.891636 0.201987
vn 0.363443 -0.907911 0.208825
vn 0.185909 -0.974291 0.127256
vn 0.493859 -0.863215 0.104702
vn -0.380331 -0.919417 0.100102
vn -0.359298 -0.931636 0.0543967
vn -0.259566 -0.964816 0.041903
vn -0.232182 -0.971137 0.0546254
vn 0.395505 -0.915301 0.0761546
vn -0.824065 -0.557476 0.100685
vn -0.891774 -0.445543 0.0789364
vn -0.340588 -0.940019 -0.0190805
vn -0.950249 -0.306182 0.0572603
vn -0.321838 -0.937579 0.131778
vn 0.324798 -0.940468 0.100129
vn 0.23546 -0.967325 0.0940247
vn 0.232639 -0.96852 0.0885842

# Mesh '<STL_BINARY>' with 300 faces
g <STL_BINARY>
usemtl DefaultMaterial
f  1//1 2//1 3//1
f  4//2 5//2 6//2
f  7//3 8//3 9//3
f  10//4 11//4 12//4
f  13//5 14//5 15//5
f  15//6 14//6 16//6
f  17//7 18//7 19//7
f  20//8 21//8 22//8
f  23//9 24//9 25//9
f  5//10 24//10 23//10
f  1//11 26//11 2//11
f  27//12 5//12 28//12
f  29//13 18//13 17//13
f  30//14 4//14 6//14
f  31//15 32//15 30//15
f  31//16 30//16 33//16
f  34//17 35//17 36//17
f  37//18 13//18 38//18
f  39//19 9//19 8//19
f  40//20 8//20 41//20
f  28//21 20//21 22//21
f  42//22 43//22 44//22
f  44//23 43//23 45//23
f  4//24 46//24 5//24
f  47//25 48//25 46//25
f  46//26 4//26 47//26
f  14//27 49//27 50//27
f  50//28 16//28 14//28
f  51//29 52//29 53//29
f  35//30 54//30 55//30
f  53//31 35//31 55//31
f  45//32 35//32 44//32
f  56//33 37//33 38//33
f  7//34 57//34 58//34
f  57//35 7//35 59//35
f  60//36 61//36 62//36
f  63//37 64//37 16//37
f  64//38 15//38 16//38
f  65//39 66//39 36//39
f  67//40 68//40 69//40
f  42//41 44//41 52//41
f  70//42 52//42 71//42
f  72//43 70//43 73//43
f  74//44 75//44 25//44
f  67//45 43//45 42//45
f  67//46 76//46 43//46
f  77//47 2//47 26//47
f  1//48 40//48 41//48
f  40//49 39//49 8//49
f  78//50 65//50 31//50
f  31//51 33//51 78//51
f  78//52 33//52 79//52
f  27//53 80//53 5//53
f  6//54 5//54 80//54
f  81//55 82//55 83//55
f  4//56 30//56 47//56
f  50//57 11//57 10//57
f  84//58 85//58 86//58
f  86//59 87//59 84//59
f  84//60 87//60 88//60
f  47//61 30//61 32//61
f  32//62 48//62 47//62
f  31//63 89//63 32//63
f  89//64 31//64 65//64
f  65//65 90//65 89//65
f  65//66 78//66 66//66
f  91//67 53//67 55//67
f  91//68 51//68 53//68
f  92//69 38//69 58//69
f  56//70 38//70 92//70
f  93//71 49//71 14//71
f  9//72 59//72 7//72
f  92//73 58//73 57//73
f  92//74 59//74 94//74
f  73//75 95//75 72//75
f  81//76 96//76 97//76
f  98//77 16//77 10//77
f  99//78 54//78 100//78
f  100//79 54//79 34//79
f  70//80 42//80 52//80
f  42//81 101//81 67//81
f  101//82 68//82 67//82
f  51//83 71//83 52//83
f  102//84 103//84 39//84
f  72//85 104//85 70//85
f  42//86 70//86 101//86
f  101//87 70//87 104//87
f  3//88 104//88 95//88
f  74//89 69//89 75//89
f  23//90 28//90 5//90
f  69//91 74//91 67//91
f  20//92 75//92 69//92
f  20//93 69//93 21//93
f  76//94 105//94 43//94
f  76//95 25//95 106//95
f  46//96 24//96 5//96
f  106//97 25//97 24//97
f  77//98 107//98 21//98
f  1//99 3//99 40//99
f  19//100 78//100 79//100
f  78//101 19//101 66//101
f  107//102 108//102 22//102
f  79//103 17//103 19//103
f  29//104 17//104 12//104
f  50//105 49//105 109//105
f  110//106 111//106 109//106
f  49//107 87//107 109//107
f  53//108 44//108 35//108
f  86//109 112//109 109//109
f  112//110 110//110 109//110
f  91//111 112//111 86//111
f  85//112 91//112 86//112
f  109//113 87//113 86//113
f  113//114 114//114 89//114
f  115//115 43//115 105//115
f  45//116 36//116 35//116
f  36//117 45//117 90//117
f  91//118 60//118 51//118
f  56//119 84//119 88//119
f  85//120 84//120 56//120
f  37//121 14//121 13//121
f  93//122 87//122 49//122
f  59//123 9//123 94//123
f  103//124 94//124 9//124
f  59//125 92//125 57//125
f  94//126 56//126 92//126
f  51//127 60//127 71//127
f  73//128 71//128 60//128
f  116//129 117//129 12//129
f  116//130 12//130 17//130
f  36//131 66//131 34//131
f  52//132 44//132 53//132
f  73//133 70//133 71//133
f  104//134 72//134 95//134
f  74//135 76//135 67//135
f  74//136 25//136 76//136
f  105//137 76//137 106//137
f  21//138 118//138 2//138
f  96//139 81//139 119//139
f  119//140 81//140 83//140
f  107//141 22//141 21//141
f  120//142 6//142 97//142
f  111//143 110//143 121//143
f  121//144 110//144 55//144
f  11//145 50//145 109//145
f  111//146 11//146 109//146
f  50//147 10//147 16//147
f  93//148 37//148 88//148
f  114//149 113//149 115//149
f  115//150 113//150 45//150
f  115//151 45//151 43//151
f  89//152 90//152 113//152
f  114//153 32//153 89//153
f  105//154 114//154 115//154
f  55//155 54//155 121//155
f  34//156 54//156 35//156
f  90//157 65//157 36//157
f  19//158 18//158 100//158
f  99//159 100//159 18//159
f  100//160 66//160 19//160
f  66//161 100//161 34//161
f  91//162 85//162 61//162
f  112//163 91//163 55//163
f  93//164 14//164 37//164
f  73//165 62//165 103//165
f  9//166 39//166 103//166
f  102//167 95//167 73//167
f  122//168 63//168 16//168
f  123//169 124//169 125//169
f  123//170 126//170 124//170
f  123//171 98//171 126//171
f  96//172 127//172 128//172
f  129//173 130//173 131//173
f  79//174 116//174 17//174
f  129//175 131//175 126//175
f  132//176 129//176 126//176
f  29//177 99//177 18//177
f  60//178 62//178 73//178
f  118//179 69//179 68//179
f  118//180 21//180 69//180
f  25//181 75//181 23//181
f  105//182 106//182 48//182
f  106//183 46//183 48//183
f  104//184 3//184 68//184
f  21//185 2//185 77//185
f  133//186 134//186 135//186
f  136//187 137//187 134//187
f  138//188 139//188 140//188
f  141//189 27//189 142//189
f  28//190 142//190 27//190
f  141//191 142//191 138//191
f  120//192 79//192 33//192
f  110//193 112//193 55//193
f  11//194 111//194 29//194
f  11//195 29//195 12//195
f  37//196 56//196 88//196
f  45//197 113//197 90//197
f  60//198 91//198 61//198
f  61//199 85//199 56//199
f  62//200 61//200 94//200
f  94//201 61//201 56//201
f  94//202 103//202 62//202
f  63//203 122//203 143//203
f  63//204 143//204 64//204
f  98//205 123//205 16//205
f  98//206 132//206 126//206
f  97//207 144//207 120//207
f  131//208 130//208 127//208
f  132//209 145//209 129//209
f  146//210 98//210 10//210
f  10//211 145//211 146//211
f  132//212 98//212 146//212
f  68//213 101//213 104//213
f  147//214 95//214 102//214
f  24//215 46//215 106//215
f  118//216 68//216 3//216
f  2//217 118//217 3//217
f  147//218 39//218 40//218
f  39//219 147//219 102//219
f  96//220 119//220 148//220
f  127//221 96//221 148//221
f  148//222 119//222 140//222
f  131//223 127//223 148//223
f  148//224 140//224 139//224
f  126//225 131//225 148//225
f  148//226 124//226 126//226
f  148//227 134//227 137//227
f  148//228 143//228 124//228
f  148//229 64//229 143//229
f  148//230 15//230 64//230
f  149//231 41//231 8//231
f  1//232 41//232 149//232
f  149//233 8//233 7//233
f  149//234 26//234 1//234
f  77//235 26//235 149//235
f  7//236 58//236 149//236
f  149//237 107//237 77//237
f  149//238 148//238 107//238
f  58//239 38//239 149//239
f  149//240 38//240 13//240
f  13//241 15//241 149//241
f  15//242 148//242 149//242
f  150//243 135//243 139//243
f  136//244 108//244 137//244
f  97//245 6//245 82//245
f  82//246 6//246 80//246
f  138//247 150//247 139//247
f  138//248 142//248 150//248
f  140//249 151//249 141//249
f  30//250 6//250 120//250
f  120//251 33//251 30//251
f  29//252 111//252 121//252
f  114//253 48//253 32//253
f  99//254 121//254 54//254
f  88//255 87//255 93//255
f  124//256 143//256 125//256
f  96//257 144//257 97//257
f  95//258 40//258 3//258
f  20//259 23//259 75//259
f  20//260 28//260 23//260
f  137//261 107//261 148//261
f  137//262 108//262 107//262
f  133//263 136//263 134//263
f  97//264 82//264 81//264
f  152//265 82//265 80//265
f  142//266 28//266 22//266
f  142//267 22//267 150//267
f  138//268 140//268 141//268
f  120//269 116//269 79//269
f  29//270 121//270 99//270
f  114//271 105//271 48//271
f  16//272 123//272 125//272
f  122//273 125//273 143//273
f  128//274 144//274 96//274
f  144//275 116//275 120//275
f  128//276 127//276 130//276
f  103//277 102//277 73//277
f  95//278 147//278 40//278
f  135//279 150//279 22//279
f  139//280 135//280 134//280
f  134//281 148//281 139//281
f  151//282 119//282 83//282
f  125//283 122//283 16//283
f  10//284 12//284 145//284
f  12//285 117//285 145//285
f  116//286 144//286 117//286
f  132//287 146//287 145//287
f  27//288 141//288 152//288
f  141//289 151//289 152//289
f  152//290 151//290 83//290
f  152//291 83//291 82//291
f  145//292 130//292 129//292
f  133//293 135//293 22//293
f  136//294 133//294 22//294
f  151//295 140//295 119//295
f  108//296 136//296 22//296
f  152//297 80//297 27//297
f  117//298 130//298 145//298
f  130//299 144//299 128//299
f  144//300 130//300 117//300

